<?xml version="1.0" encoding="UTF-8" standalone="no"?>
<!-- Created with Inkscape (http://www.inkscape.org/) -->

<svg
   xmlns:dc="http://purl.org/dc/elements/1.1/"
   xmlns:cc="http://creativecommons.org/ns#"
   xmlns:rdf="http://www.w3.org/1999/02/22-rdf-syntax-ns#"
   xmlns:svg="http://www.w3.org/2000/svg"
   xmlns="http://www.w3.org/2000/svg"
   version="1.1"
   width="128.375"
   height="105.09375"
   id="svg2">
  <metadata
     id="metadata3873">
    <rdf:RDF>
      <cc:Work
         rdf:about="">
        <dc:format>image/svg+xml</dc:format>
        <dc:type
           rdf:resource="http://purl.org/dc/dcmitype/StillImage" />
        <dc:title></dc:title>
      </cc:Work>
    </rdf:RDF>
  </metadata>
  <defs
     id="defs4" />
  <path
     d="M 7.5703119,6.2343734 122.01563,3.5624983 113.10938,54.773436 19.148438,55.218749 z"
     id="path3133"
     style="fill:none;stroke:#000000;stroke-width:1px;stroke-linecap:butt;stroke-linejoin:miter;stroke-opacity:1" />
  <path
     d="M 18.703125,54.773436 C 16.921875,56.554686 8.4609379,102.42188 8.4609379,102.42188 L 121.12501,100.19531 110.88282,54.328124 z"
     id="path3135"
     style="fill:none;stroke:#000000;stroke-width:1px;stroke-linecap:butt;stroke-linejoin:miter;stroke-opacity:1" />
  <path
     d="m 54.773439,12.023436 c 10.242187,18.257812 8.015625,24.492187 8.015625,24.492187 l 9.351563,-24.046875 z"
     id="path3137"
     style="fill:none;stroke:#000000;stroke-width:1px;stroke-linecap:butt;stroke-linejoin:miter;stroke-opacity:1" />
  <path
     d="m 57.890626,48.093749 8.906251,-0.445313 -4.453126,-8.460937 z"
     id="path3139"
     style="fill:none;stroke:#000000;stroke-width:1px;stroke-linecap:butt;stroke-linejoin:miter;stroke-opacity:1" />
  <path
     d="m 26.273438,61.453124 c 0.445312,8.460938 -6.679688,30.281251 -1.78125,28.500001 4.898437,-1.78125 84.164062,0.445312 84.164062,0.445312 l -4.89844,-32.953125 z"
     id="path3141"
     style="fill:none;stroke:#000000;stroke-width:1px;stroke-linecap:butt;stroke-linejoin:miter;stroke-opacity:1" />
  <path
     d="m 52.546876,89.507812 c -1.335938,4.453125 1.335937,9.351563 1.335937,9.351563 l 11.132813,-1.78125 0.890625,-7.125 z"
     id="path3145"
     style="fill:none;stroke:#000000;stroke-width:1px;stroke-linecap:butt;stroke-linejoin:miter;stroke-opacity:1" />
  <path
     d="m 12.46875,9.7968735 c 2.226563,-0.4453125 102.86719,-1.78125 102.86719,-1.78125 l -6.23438,40.9687505 -86.835935,0.890625 z"
     id="path3147"
     style="fill:none;stroke:#000000;stroke-width:1px;stroke-linecap:butt;stroke-linejoin:miter;stroke-opacity:1" />
</svg>
