<?xml version="1.0" encoding="UTF-8" standalone="no"?>
<!-- Created with Inkscape (http://www.inkscape.org/) -->

<svg
   xmlns:dc="http://purl.org/dc/elements/1.1/"
   xmlns:cc="http://creativecommons.org/ns#"
   xmlns:rdf="http://www.w3.org/1999/02/22-rdf-syntax-ns#"
   xmlns:svg="http://www.w3.org/2000/svg"
   xmlns="http://www.w3.org/2000/svg"
   xmlns:sodipodi="http://sodipodi.sourceforge.net/DTD/sodipodi-0.dtd"
   xmlns:inkscape="http://www.inkscape.org/namespaces/inkscape"
   version="1.1"
   width="128.375"
   height="105.09375"
   id="svg2"
   inkscape:version="0.48.3.1 r9886"
   sodipodi:docname="aka.svg">
  <metadata
     id="metadata3873">
    <rdf:RDF>
      <cc:Work
         rdf:about="">
        <dc:format>image/svg+xml</dc:format>
        <dc:type
           rdf:resource="http://purl.org/dc/dcmitype/StillImage" />
        <dc:title></dc:title>
      </cc:Work>
    </rdf:RDF>
  </metadata>
  <sodipodi:namedview
     pagecolor="#ffffff"
     bordercolor="#666666"
     borderopacity="1"
     objecttolerance="10"
     gridtolerance="10"
     guidetolerance="10"
     inkscape:pageopacity="0"
     inkscape:pageshadow="2"
     inkscape:window-width="1022"
     inkscape:window-height="766"
     id="namedview3871"
     showgrid="false"
     inkscape:zoom="2.245614"
     inkscape:cx="-8.3984374"
     inkscape:cy="68.152777"
     inkscape:window-x="0"
     inkscape:window-y="0"
     inkscape:window-maximized="0"
     inkscape:current-layer="svg2" />
  <defs
     id="defs4" />
  <path
     style="fill:none;stroke:#000000;stroke-width:1px;stroke-linecap:butt;stroke-linejoin:miter;stroke-opacity:1"
     d="m 11.578125,30.281249 -3.117187,57.890626 12.468749,-5.34375 0.890626,-15.140626 8.90625,-1.78125 -7.125,28.054688 20.929688,0.890625 0,-43.195313 12.46875,-1.78125 -5.34375,22.710938 14.695313,2.226562 2.226562,-20.484375 19.148439,-2.226562 10.880599,34.509749 20.736586,-0.665999 3.5625,-82.3828136 -28.798735,5.4056101 -9.498138,24.4303275 z"
     id="path3037"
     inkscape:connector-curvature="0"
     sodipodi:nodetypes="ccccccccccccccccccc" />
  <path
     style="fill:none;stroke:#000000;stroke-width:1px;stroke-linecap:butt;stroke-linejoin:miter;stroke-opacity:1"
     d="m 108.21094,18.703124 c 0,2.671875 -1.78125,52.101563 -1.78125,52.101563 l 6.67969,6.234375 2.22656,-68.1328135 z"
     id="path3039"
     inkscape:connector-curvature="0" />
  <path
     style="fill:#000000;stroke:none"
     d="m 31.249119,93.618813 c -3.34732,-0.141209 -6.19533,-0.366083 -6.328909,-0.499717 -0.133579,-0.133634 1.337177,-6.517981 3.268347,-14.187438 l 3.511217,-13.944467 -1.190121,0.237062 c -0.654566,0.130383 -3.022164,0.587831 -5.261327,1.016546 l -4.071207,0.77948 -0.278917,4.709959 c -0.153405,2.590476 -0.393324,6.038896 -0.533155,7.66316 l -0.254237,2.953206 -5.370667,2.286613 C 11.786276,85.89085 9.3381926,86.866401 9.2999577,86.8011 9.1372896,86.523301 12.246825,31.466024 12.435859,31.276989 c 0.114541,-0.114541 16.433226,0.473064 36.263743,1.30579 22.88804,0.961117 36.198769,1.358481 36.447824,1.088073 0.215789,-0.234285 2.439943,-5.748302 4.942563,-12.253372 l 4.550226,-11.8274003 13.601745,-2.54723 c 7.48097,-1.4009765 13.66674,-2.4822439 13.74617,-2.4028165 0.23562,0.235628 -3.30868,80.1121178 -3.56619,80.3696288 -0.19324,0.193234 -19.042603,1.011522 -19.252461,0.835784 -0.03527,-0.02952 -2.478979,-7.740965 -5.430483,-17.13652 -2.951505,-9.395555 -5.43691,-17.153371 -5.523127,-17.239588 -0.08622,-0.08622 -4.706271,0.375283 -10.266782,1.025555 -8.329931,0.974134 -10.1131,1.304503 -10.127488,1.876302 -0.04066,1.61477 -2.101657,19.215462 -2.269789,19.383598 -0.390223,0.390219 -12.85257,-1.731317 -12.834339,-2.184863 0.01046,-0.260419 1.187551,-5.383058 2.615744,-11.383644 1.428193,-6.000586 2.544391,-10.971035 2.480444,-11.045442 -0.06394,-0.07441 -3.244935,0.309269 -7.068867,0.852622 l -6.952604,0.987912 0,21.524331 0,21.524327 -3.228515,-0.07724 c -1.775684,-0.04248 -5.967233,-0.192776 -9.314554,-0.333984 l 0,0 z M 114.86401,45.64227 c 0.59908,-17.84005 1.03455,-33.824409 0.9677,-35.520798 l -0.12155,-3.0843457 -4.08738,5.6190337 -4.08737,5.619033 -0.94799,26.410625 -0.94799,26.410624 3.91424,3.644567 c 2.15283,2.004512 3.98327,3.575525 4.06766,3.491143 0.0844,-0.08439 0.64358,-14.749832 1.24268,-32.589882 l 0,0 z"
     id="path3043"
     inkscape:connector-curvature="0" />
</svg>
