<?xml version="1.0" encoding="UTF-8" standalone="no"?>
<!-- Created with Inkscape (http://www.inkscape.org/) -->

<svg
   xmlns:dc="http://purl.org/dc/elements/1.1/"
   xmlns:cc="http://creativecommons.org/ns#"
   xmlns:rdf="http://www.w3.org/1999/02/22-rdf-syntax-ns#"
   xmlns:svg="http://www.w3.org/2000/svg"
   xmlns="http://www.w3.org/2000/svg"
   xmlns:inkscape="http://www.inkscape.org/namespaces/inkscape"
   version="1.1"
   width="128.375"
   height="105.09375"
   id="svg2">
  <metadata
     id="metadata3873">
    <rdf:RDF>
      <cc:Work
         rdf:about="">
        <dc:format>image/svg+xml</dc:format>
        <dc:type
           rdf:resource="http://purl.org/dc/dcmitype/StillImage" />
        <dc:title></dc:title>
      </cc:Work>
    </rdf:RDF>
  </metadata>
  <defs
     id="defs4">
    <inkscape:path-effect
       effect="skeletal"
       id="path-effect4479" />
  </defs>
  <path
     d="M 19.378521,13.76679 35.119927,14.317426 34.682665,26.156105 20.034413,25.054833 z"
     id="path4449"
     style="fill:none;stroke:#000000;stroke-width:0.55094475px;stroke-linecap:butt;stroke-linejoin:miter;stroke-opacity:1" />
  <path
     d="M 18.285368,10.462973 39.273909,11.288927 37.306233,30.010559 16.973584,27.808014 z"
     id="path4451"
     style="fill:none;stroke:#000000;stroke-width:0.55094475px;stroke-linecap:butt;stroke-linejoin:miter;stroke-opacity:1" />
  <path
     d="M 11.507818,28.35865 7.791097,38.545422 43.865152,40.747973 42.553368,30.836515 z"
     id="path4453"
     style="fill:none;stroke:#000000;stroke-width:0.55094475px;stroke-linecap:butt;stroke-linejoin:miter;stroke-opacity:1" />
  <path
     d="m 86.563965,8.2864625 23.490005,0 -0.29362,19.4659205 -23.783635,-1.145054 z"
     id="path4455"
     style="fill:none;stroke:#000000;stroke-width:0.65105057px;stroke-linecap:butt;stroke-linejoin:miter;stroke-opacity:1" />
  <path
     d="M 90.968342,12.294152 105.6496,12.007889 105.35597,22.59964 92.142843,22.027112 z"
     id="path4457"
     style="fill:none;stroke:#000000;stroke-width:0.65105057px;stroke-linecap:butt;stroke-linejoin:miter;stroke-opacity:1" />
  <path
     d="m 82.453214,28.038648 29.068886,0.286263 1.76175,10.59175 -35.528638,-2.003843 z"
     id="path4459"
     style="fill:none;stroke:#000000;stroke-width:0.65105057px;stroke-linecap:butt;stroke-linejoin:miter;stroke-opacity:1" />
  <path
     d="m 23.622647,65.983559 c 15.487981,0 15.487981,0 15.487981,0 l 1.753356,11.15689 -16.364659,-1.697788 z"
     id="path4461"
     style="fill:none;stroke:#000000;stroke-width:0.59784311px;stroke-linecap:butt;stroke-linejoin:miter;stroke-opacity:1" />
  <path
     d="m 20.992613,77.62553 2.337808,0.242541 20.455823,1.455247 -0.584452,-15.765169 -21.624727,-0.970165 z"
     id="path4463"
     style="fill:none;stroke:#000000;stroke-width:0.59784311px;stroke-linecap:butt;stroke-linejoin:miter;stroke-opacity:1" />
  <path
     d="M 19.239256,79.323318 9.5957966,90.722746 49.630766,91.935456 46.708505,80.536023 z"
     id="path4465"
     style="fill:none;stroke:#000000;stroke-width:0.59784311px;stroke-linecap:butt;stroke-linejoin:miter;stroke-opacity:1" />
  <path
     d="m 87.151094,62.051174 -1.315538,12.898633 14.207804,0.758742 1.05243,-12.392803 z"
     id="path4467"
     style="fill:none;stroke:#000000;stroke-width:0.57927984px;stroke-linecap:butt;stroke-linejoin:miter;stroke-opacity:1" />
  <path
     d="m 84.783126,59.016202 -2.104859,18.209833 20.522383,2.529144 1.31554,-17.704005 z"
     id="path4469"
     style="fill:none;stroke:#000000;stroke-width:0.57927984px;stroke-linecap:butt;stroke-linejoin:miter;stroke-opacity:1" />
  <path
     d="M 80.836515,77.731864 84.783126,93.15964 116.88224,94.171298 114.51427,81.52558 z"
     id="path4471"
     style="fill:none;stroke:#000000;stroke-width:0.57927984px;stroke-linecap:butt;stroke-linejoin:miter;stroke-opacity:1" />
  <path
     d="m 48.539062,39.632812 30.28125,32.953125"
     id="path4481"
     style="fill:none;stroke:#000000;stroke-width:1px;stroke-linecap:butt;stroke-linejoin:miter;stroke-opacity:1" />
  <path
     d="m 79.265625,23.15625 -24.9375,54.773437"
     id="path4483"
     style="fill:none;stroke:#000000;stroke-width:1px;stroke-linecap:butt;stroke-linejoin:miter;stroke-opacity:1" />
  <path
     d="M 31.171875,42.75 32.953125,57"
     id="path4485"
     style="fill:none;stroke:#000000;stroke-width:1px;stroke-linecap:butt;stroke-linejoin:miter;stroke-opacity:1" />
  <path
     d="m 95.742187,41.414062 0,13.804688"
     id="path4487"
     style="fill:none;stroke:#000000;stroke-width:1px;stroke-linecap:butt;stroke-linejoin:miter;stroke-opacity:1" />
  <path
     d="m 55.664062,88.617187 26.71875,0"
     id="path4491"
     style="fill:none;stroke:#000000;stroke-width:1px;stroke-linecap:butt;stroke-linejoin:miter;stroke-opacity:1" />
  <path
     d="M 43.195312,25.382812 81.492187,19.59375"
     id="path4493"
     style="fill:none;stroke:#000000;stroke-width:1px;stroke-linecap:butt;stroke-linejoin:miter;stroke-opacity:1" />
</svg>
